<!-- icon666.com - MILLIONS OF FREE VECTOR ICONS --><svg id="Capa_1" enable-background="new 0 0 512 512" viewBox="0 0 512 512" xmlns="http://www.w3.org/2000/svg"><g><path d="m165.688 427.274c5.858 5.859 15.355 5.858 21.213 0l151.702-151.71c5.858-5.858 5.858-15.356 0-21.214-5.857-5.858-15.355-5.858-21.213 0l-151.702 151.71c-5.858 5.858-5.858 15.356 0 21.214z"></path><path d="m200.922 326.195c24.813 0 45-20.188 45-45.002s-20.187-45.002-45-45.002-45 20.188-45 45.002 20.187 45.002 45 45.002zm0-60.003c8.271 0 15 6.729 15 15.001s-6.729 15.001-15 15.001-15-6.729-15-15.001 6.729-15.001 15-15.001z"></path><path d="m311.077 346.351c-24.813 0-45 20.188-45 45.002s20.187 45.002 45 45.002 45-20.188 45-45.002-20.187-45.002-45-45.002zm0 60.003c-8.271 0-15-6.729-15-15.001s6.729-15.001 15-15.001 15 6.729 15 15.001-6.729 15.001-15 15.001z"></path><path d="m10 81.931v93.615c0 8.285 6.716 15.001 15 15.001h15v306.452c0 8.285 6.716 15.001 15 15.001h402c8.284 0 15-6.716 15-15.001v-306.452h15c8.284 0 15-6.716 15-15.001v-93.615c0-8.285-6.716-15.001-15-15.001h-61.469c1.043-19.079-6.742-37.8-22.154-51.124-21.114-18.256-50.242-20.93-74.203-6.811-11.633 6.855-22.565 11.999-31.438 15.692-10.563-10.94-25.364-17.764-41.736-17.764-16.373 0-31.173 6.824-41.737 17.765-8.873-3.694-19.805-8.838-31.439-15.694-23.96-14.118-53.086-11.443-74.203 6.813-15.411 13.324-23.196 32.044-22.153 51.124h-61.468c-8.284 0-15 6.716-15 15zm432 400.067h-372v-291.451h372zm-214.05-385.066h56.1v63.614h-56.1zm244.05 63.614c-6.318 0-150.929 0-157.95 0v-63.614h157.95zm-127.595-125.703c25.157-14.823 53.795 7.019 51.076 32.088h-81.431c0-2.981.13-8.46-1.694-15.855 9.327-4.013 20.379-9.356 32.049-16.233zm-88.405 2.081c15.467 0 28.05 12.584 28.05 28.051v1.955h-56.1v-1.955c0-15.467 12.583-28.051 28.05-28.051zm-88.406-2.082c11.67 6.878 22.723 12.221 32.049 16.234-1.647 6.675-1.694 11.5-1.694 15.855h-81.431c-2.708-24.978 25.831-46.966 51.076-32.089zm-127.594 62.09h157.95v63.614c-7.096 0-151.663 0-157.95 0z"></path></g></svg>